<?xml version="1.0" encoding="UTF-8"?>
<svg width="256" height="256" viewBox="0 0 32 32" fill="none" xmlns="http://www.w3.org/2000/svg">
  <!-- Neural network background -->
  <g opacity="0.7">
    <circle cx="6" cy="8" r="1.5" fill="#4F46E5" opacity="0.6"/>
    <circle cx="6" cy="16" r="1.5" fill="#4F46E5" opacity="0.6"/>
    <circle cx="6" cy="24" r="1.5" fill="#4F46E5" opacity="0.6"/>
    <circle cx="14" cy="6" r="1.5" fill="#4F46E5" opacity="0.8"/>
    <circle cx="14" cy="12" r="1.5" fill="#4F46E5" opacity="0.8"/>
    <circle cx="14" cy="18" r="1.5" fill="#4F46E5" opacity="0.8"/>
    <circle cx="14" cy="26" r="1.5" fill="#4F46E5" opacity="0.8"/>
    <circle cx="22" cy="10" r="1.5" fill="#4F46E5" opacity="0.9"/>
    <circle cx="22" cy="16" r="1.5" fill="#4F46E5" opacity="0.9"/>
    <circle cx="22" cy="22" r="1.5" fill="#4F46E5" opacity="0.9"/>
    <g stroke="#4F46E5" stroke-width="0.8" opacity="0.4">
      <line x1="6" y1="8" x2="14" y2="6"/>
      <line x1="6" y1="8" x2="14" y2="12"/>
      <line x1="6" y1="16" x2="14" y2="12"/>
      <line x1="6" y1="16" x2="14" y2="18"/>
      <line x1="6" y1="24" x2="14" y2="18"/>
      <line x1="6" y1="24" x2="14" y2="26"/>
      <line x1="14" y1="6" x2="22" y2="10"/>
      <line x1="14" y1="12" x2="22" y2="10"/>
      <line x1="14" y1="12" x2="22" y2="16"/>
      <line x1="14" y1="18" x2="22" y2="16"/>
      <line x1="14" y1="18" x2="22" y2="22"/>
      <line x1="14" y1="26" x2="22" y2="22"/>
    </g>
  </g>
  
  <!-- Magnifying glass -->
  <circle cx="20" cy="12" r="6" fill="rgba(255,255,255,0.2)" stroke="#1E293B" stroke-width="2" opacity="0.9"/>
  <line x1="24.5" y1="16.5" x2="28" y2="20" stroke="#1E293B" stroke-width="2.5" stroke-linecap="round"/>
  
  <!-- Nodes inside magnifying glass -->
  <circle cx="18" cy="10" r="1.2" fill="#1E293B"/>
  <circle cx="22" cy="12" r="1.2" fill="#1E293B"/>
  <circle cx="20" cy="14" r="1.2" fill="#1E293B"/>
  
  <!-- Connections inside magnifying glass -->
  <g stroke="#1E293B" stroke-width="1.2" opacity="0.8">
    <line x1="18" y1="10" x2="22" y2="12"/>
    <line x1="22" y1="12" x2="20" y2="14"/>
    <line x1="20" y1="14" x2="18" y2="10"/>
  </g>
  
  <!-- Glass reflection -->
  <path d="M16 8 Q18 6 20 8 Q18 10 16 8" fill="white" opacity="0.3"/>
  
  <!-- Sparkles -->
  <g opacity="0.6">
    <path d="M4 4L5 5L4 6L3 5L4 4Z" fill="#4F46E5"/>
    <path d="M28 6L29 7L28 8L27 7L28 6Z" fill="#4F46E5"/>
    <path d="M2 28L3 29L2 30L1 29L2 28Z" fill="#4F46E5"/>
  </g>
</svg> 